<svg width="39" height="22" viewBox="0 0 39 22" fill="none" xmlns="http://www.w3.org/2000/svg">
<path d="M38.1294 1.05312L26.9067 12.5794C26.3432 13.1581 25.498 13.3028 24.7467 12.9652L19.7692 10.6503C19.7223 10.6503 19.6284 10.6503 19.5814 10.6503C19.4875 10.6503 19.4405 10.6503 19.3466 10.6985L14.3692 13.0134C13.6649 13.351 12.7727 13.2064 12.2092 12.6276L0.939563 1.05312C0.610865 0.667304 -0.0465302 1.10135 0.188254 1.58362C1.12739 3.94675 6.80916 17.9326 7.60743 19.9581C8.17091 21.3567 9.95527 21.7425 10.9883 20.6333L15.5431 15.9553L19.2997 12.0971C19.4405 11.9524 19.7223 11.9524 19.8632 12.0971L23.6197 15.9553L28.1745 20.6333C29.2076 21.6943 30.9919 21.3567 31.5554 19.9581C32.3537 18.0291 38.0354 3.89852 38.9746 1.58362C39.1624 1.10135 38.505 0.667304 38.1294 1.05312Z" fill="#090E82"/>
</svg>
